<?xml version="1.0" encoding="UTF-8"?>
<svg width="512" height="512" viewBox="0 0 512 512" fill="none" xmlns="http://www.w3.org/2000/svg">
  <!-- Background -->
  <rect width="512" height="512" rx="128" fill="#4F46E5"/>
  
  <!-- Invoice Paper -->
  <path d="M156 96h200c11.046 0 20 8.954 20 20v280c0 11.046-8.954 20-20 20H156c-11.046 0-20-8.954-20-20V116c0-11.046 8.954-20 20-20z" fill="white"/>
  
  <!-- Lines -->
  <rect x="176" y="156" width="160" height="12" rx="6" fill="#E0E7FF"/>
  <rect x="176" y="196" width="160" height="12" rx="6" fill="#E0E7FF"/>
  <rect x="176" y="236" width="160" height="12" rx="6" fill="#E0E7FF"/>
  <rect x="176" y="276" width="100" height="12" rx="6" fill="#E0E7FF"/>
  
  <!-- Rupee Symbol -->
  <path d="M256 340c-22.091 0-40-17.909-40-40h80c0 22.091-17.909 40-40 40z" fill="#4F46E5"/>
  <path d="M296 300h-80v-20h80v20zM256 260c22.091 0 40 17.909 40 40h-80c0-22.091 17.909-40 40-40z" fill="#4F46E5"/>
</svg> 